<?xml version="1.0" encoding="UTF-8" standalone="no"?>
<svg
   xmlns:dc="http://purl.org/dc/elements/1.1/"
   xmlns:cc="http://creativecommons.org/ns#"
   xmlns:rdf="http://www.w3.org/1999/02/22-rdf-syntax-ns#"
   xmlns:svg="http://www.w3.org/2000/svg"
   xmlns="http://www.w3.org/2000/svg"
   xmlns:sodipodi="http://sodipodi.sourceforge.net/DTD/sodipodi-0.dtd"
   xmlns:inkscape="http://www.inkscape.org/namespaces/inkscape"
   width="504.7821pt"
   height="283.15805pt"
   viewBox="0 0 504.78211 283.15805"
   version="1.1"
   id="svg2"
   inkscape:version="0.91 r13725"
   sodipodi:docname="extr_eff.svg">
  <sodipodi:namedview
     pagecolor="#ffffff"
     bordercolor="#666666"
     borderopacity="1"
     objecttolerance="10"
     gridtolerance="10"
     guidetolerance="10"
     inkscape:pageopacity="0"
     inkscape:pageshadow="2"
     inkscape:window-width="1855"
     inkscape:window-height="1056"
     id="namedview687"
     showgrid="false"
     inkscape:zoom="0.84091711"
     inkscape:cx="270.06824"
     inkscape:cy="217.81401"
     inkscape:window-x="1985"
     inkscape:window-y="24"
     inkscape:window-maximized="1"
     inkscape:current-layer="surface230"
     fit-margin-top="0"
     fit-margin-left="0"
     fit-margin-right="0"
     fit-margin-bottom="0" />
  <metadata
     id="metadata691">
    <rdf:RDF>
      <cc:Work
         rdf:about="">
        <dc:format>image/svg+xml</dc:format>
        <dc:type
           rdf:resource="http://purl.org/dc/dcmitype/StillImage" />
        <dc:title />
      </cc:Work>
    </rdf:RDF>
  </metadata>
  <defs
     id="defs689" />
  <g
     id="surface230"
     transform="translate(-6.2022677,-42.75)">
    <rect
       style="color:#000000;clip-rule:nonzero;display:inline;overflow:visible;visibility:visible;opacity:1;isolation:auto;mix-blend-mode:normal;color-interpolation:sRGB;color-interpolation-filters:linearRGB;solid-color:#000000;solid-opacity:1;fill:#0000ff;fill-opacity:0.21951222;fill-rule:evenodd;stroke:none;stroke-width:0.80000001;stroke-linecap:square;stroke-linejoin:miter;stroke-miterlimit:4;stroke-dasharray:2.4, 0.8;stroke-dashoffset:0;stroke-opacity:1;color-rendering:auto;image-rendering:auto;shape-rendering:auto;text-rendering:auto;enable-background:accumulate"
       id="rect9120"
       width="70.237755"
       height="228.76059"
       x="283.12164"
       y="50.039116" />
    <path
       id="path13"
       d="m 56.691406,279.63672 1,-1 0,-228.35547 451.542964,0 1,-1 -453.542964,0 0,230.35547"
       style="fill:#ffffff;fill-opacity:1;fill-rule:evenodd;stroke:none"
       inkscape:connector-curvature="0" />
    <path
       id="path15"
       d="m 56.691406,279.63672 1,-1 451.542964,0 0,-228.35547 1,-1 0,230.35547 -453.542964,0"
       style="fill:#b0b0b0;fill-opacity:1;fill-rule:evenodd;stroke:none"
       inkscape:connector-curvature="0" />
    <path
       id="path17"
       transform="matrix(1,0,0,-1,0,329)"
       d="m 56.691406,279.71875 453.542964,0 0,-230.355469 -453.542964,0 z m 0,0"
       style="fill:none;stroke:#000000;stroke-width:1.5;stroke-linecap:butt;stroke-linejoin:miter;stroke-miterlimit:10;stroke-opacity:1"
       inkscape:connector-curvature="0" />
    <path
       id="path21"
       d="m 56.691406,279.63672 1,-1 0,-228.35547 451.542964,0 1,-1 -453.542964,0 0,230.35547"
       style="fill:#ffffff;fill-opacity:1;fill-rule:evenodd;stroke:none"
       inkscape:connector-curvature="0" />
    <path
       id="path23"
       d="m 56.691406,279.63672 1,-1 451.542964,0 0,-228.35547 1,-1 0,230.35547 -453.542964,0"
       style="fill:#b0b0b0;fill-opacity:1;fill-rule:evenodd;stroke:none"
       inkscape:connector-curvature="0" />
    <path
       id="path25"
       transform="matrix(1,0,0,-1,0,329)"
       d="m 56.691406,279.71875 453.542964,0 0,-230.355469 -453.542964,0 z m 0,0"
       style="fill:none;stroke:#000000;stroke-width:1.5;stroke-linecap:butt;stroke-linejoin:miter;stroke-miterlimit:10;stroke-opacity:1"
       inkscape:connector-curvature="0" />
    <path
       id="path27"
       transform="matrix(1,0,0,-1,0,329)"
       d="m 56.691406,49.363281 453.542964,0"
       style="fill:none;stroke:#000000;stroke-width:0.75;stroke-linecap:butt;stroke-linejoin:miter;stroke-miterlimit:10;stroke-opacity:1"
       inkscape:connector-curvature="0" />
    <path
       id="path29"
       transform="matrix(1,0,0,-1,0,329)"
       d="m 120.96875,279.71875 0,-230.355469"
       style="fill:none;stroke:#000000;stroke-width:0.75;stroke-linecap:butt;stroke-linejoin:miter;stroke-miterlimit:10;stroke-dasharray:1, 2;stroke-opacity:1"
       inkscape:connector-curvature="0" />
    <path
       id="path31"
       transform="matrix(1,0,0,-1,0,329)"
       d="m 187.34766,279.71875 0,-230.355469"
       style="fill:none;stroke:#000000;stroke-width:0.75;stroke-linecap:butt;stroke-linejoin:miter;stroke-miterlimit:10;stroke-dasharray:1, 2;stroke-opacity:1"
       inkscape:connector-curvature="0" />
    <path
       id="path33"
       transform="matrix(1,0,0,-1,0,329)"
       d="m 253.73047,279.71875 0,-230.355469"
       style="fill:none;stroke:#000000;stroke-width:0.75;stroke-linecap:butt;stroke-linejoin:miter;stroke-miterlimit:10;stroke-dasharray:1, 2;stroke-opacity:1"
       inkscape:connector-curvature="0" />
    <path
       id="path35"
       transform="matrix(1,0,0,-1,0,329)"
       d="m 320.10937,279.71875 0,-230.355469"
       style="fill:none;stroke:#000000;stroke-width:0.75;stroke-linecap:butt;stroke-linejoin:miter;stroke-miterlimit:10;stroke-dasharray:1, 2;stroke-opacity:1"
       inkscape:connector-curvature="0" />
    <path
       id="path37"
       transform="matrix(1,0,0,-1,0,329)"
       d="m 386.48828,279.71875 0,-230.355469"
       style="fill:none;stroke:#000000;stroke-width:0.75;stroke-linecap:butt;stroke-linejoin:miter;stroke-miterlimit:10;stroke-dasharray:1, 2;stroke-opacity:1"
       inkscape:connector-curvature="0" />
    <path
       id="path39"
       transform="matrix(1,0,0,-1,0,329)"
       d="m 452.86719,279.71875 0,-230.355469"
       style="fill:none;stroke:#000000;stroke-width:0.75;stroke-linecap:butt;stroke-linejoin:miter;stroke-miterlimit:10;stroke-dasharray:1, 2;stroke-opacity:1"
       inkscape:connector-curvature="0" />
    <path
       id="path41"
       transform="matrix(1,0,0,-1,0,329)"
       d="m 120.96875,279.71875 0,-230.355469"
       style="fill:none;stroke:#000000;stroke-width:0.75;stroke-linecap:butt;stroke-linejoin:miter;stroke-miterlimit:10;stroke-dasharray:1, 2;stroke-opacity:1"
       inkscape:connector-curvature="0" />
    <path
       id="path43"
       transform="matrix(1,0,0,-1,0,329)"
       d="m 452.86719,279.71875 0,-230.355469"
       style="fill:none;stroke:#000000;stroke-width:0.75;stroke-linecap:butt;stroke-linejoin:miter;stroke-miterlimit:10;stroke-dasharray:1, 2;stroke-opacity:1"
       inkscape:connector-curvature="0" />
    <path
       id="path45"
       transform="matrix(1,0,0,-1,0,329)"
       d="m 56.691406,49.363281 0,230.355469"
       style="fill:none;stroke:#000000;stroke-width:0.75;stroke-linecap:butt;stroke-linejoin:miter;stroke-miterlimit:10;stroke-opacity:1"
       inkscape:connector-curvature="0" />
    <path
       id="path47"
       transform="matrix(1,0,0,-1,0,329)"
       d="m 510.23437,49.363281 -453.542964,0"
       style="fill:none;stroke:#000000;stroke-width:0.75;stroke-linecap:butt;stroke-linejoin:miter;stroke-miterlimit:10;stroke-dasharray:1, 2;stroke-opacity:1"
       inkscape:connector-curvature="0" />
    <path
       id="path49"
       transform="matrix(1,0,0,-1,0,329)"
       d="m 510.23437,87.753906 -453.542964,0"
       style="fill:none;stroke:#000000;stroke-width:0.75;stroke-linecap:butt;stroke-linejoin:miter;stroke-miterlimit:10;stroke-dasharray:1, 2;stroke-opacity:1"
       inkscape:connector-curvature="0" />
    <path
       id="path51"
       transform="matrix(1,0,0,-1,0,329)"
       d="m 510.23437,126.14844 -453.542964,0"
       style="fill:none;stroke:#000000;stroke-width:0.75;stroke-linecap:butt;stroke-linejoin:miter;stroke-miterlimit:10;stroke-dasharray:1, 2;stroke-opacity:1"
       inkscape:connector-curvature="0" />
    <path
       id="path53"
       transform="matrix(1,0,0,-1,0,329)"
       d="m 510.23437,164.53906 -453.542964,0"
       style="fill:none;stroke:#000000;stroke-width:0.75;stroke-linecap:butt;stroke-linejoin:miter;stroke-miterlimit:10;stroke-dasharray:1, 2;stroke-opacity:1"
       inkscape:connector-curvature="0" />
    <path
       id="path55"
       transform="matrix(1,0,0,-1,0,329)"
       d="m 510.23437,202.93359 -453.542964,0"
       style="fill:none;stroke:#000000;stroke-width:0.75;stroke-linecap:butt;stroke-linejoin:miter;stroke-miterlimit:10;stroke-dasharray:1, 2;stroke-opacity:1"
       inkscape:connector-curvature="0" />
    <path
       id="path57"
       transform="matrix(1,0,0,-1,0,329)"
       d="m 510.23437,241.32422 -453.542964,0"
       style="fill:none;stroke:#000000;stroke-width:0.75;stroke-linecap:butt;stroke-linejoin:miter;stroke-miterlimit:10;stroke-dasharray:1, 2;stroke-opacity:1"
       inkscape:connector-curvature="0" />
    <path
       id="path59"
       transform="matrix(1,0,0,-1,0,329)"
       d="m 510.23437,279.71875 -453.542964,0"
       style="fill:none;stroke:#000000;stroke-width:0.75;stroke-linecap:butt;stroke-linejoin:miter;stroke-miterlimit:10;stroke-dasharray:1, 2;stroke-opacity:1"
       inkscape:connector-curvature="0" />
    <path
       id="path61"
       transform="matrix(1,0,0,-1,0,329)"
       d="m 56.691406,49.363281 453.542964,0"
       style="fill:none;stroke:#000000;stroke-width:0.75;stroke-linecap:butt;stroke-linejoin:miter;stroke-miterlimit:10;stroke-opacity:1"
       inkscape:connector-curvature="0" />
    <path
       id="path63"
       transform="matrix(1,0,0,-1,0,329)"
       d="m 120.96875,57.261719 0,-7.898438"
       style="fill:none;stroke:#000000;stroke-width:0.75;stroke-linecap:butt;stroke-linejoin:miter;stroke-miterlimit:10;stroke-opacity:1"
       inkscape:connector-curvature="0" />
    <path
       id="path65"
       transform="matrix(1,0,0,-1,0,329)"
       d="m 134.24609,53.3125 0,-3.949219"
       style="fill:none;stroke:#000000;stroke-width:0.75;stroke-linecap:butt;stroke-linejoin:miter;stroke-miterlimit:10;stroke-opacity:1"
       inkscape:connector-curvature="0" />
    <path
       id="path67"
       transform="matrix(1,0,0,-1,0,329)"
       d="m 147.52344,53.3125 0,-3.949219"
       style="fill:none;stroke:#000000;stroke-width:0.75;stroke-linecap:butt;stroke-linejoin:miter;stroke-miterlimit:10;stroke-opacity:1"
       inkscape:connector-curvature="0" />
    <path
       id="path69"
       transform="matrix(1,0,0,-1,0,329)"
       d="m 160.79687,53.3125 0,-3.949219"
       style="fill:none;stroke:#000000;stroke-width:0.75;stroke-linecap:butt;stroke-linejoin:miter;stroke-miterlimit:10;stroke-opacity:1"
       inkscape:connector-curvature="0" />
    <path
       id="path71"
       transform="matrix(1,0,0,-1,0,329)"
       d="m 174.07422,53.3125 0,-3.949219"
       style="fill:none;stroke:#000000;stroke-width:0.75;stroke-linecap:butt;stroke-linejoin:miter;stroke-miterlimit:10;stroke-opacity:1"
       inkscape:connector-curvature="0" />
    <path
       id="path73"
       transform="matrix(1,0,0,-1,0,329)"
       d="m 187.34766,57.261719 0,-7.898438"
       style="fill:none;stroke:#000000;stroke-width:0.75;stroke-linecap:butt;stroke-linejoin:miter;stroke-miterlimit:10;stroke-opacity:1"
       inkscape:connector-curvature="0" />
    <path
       id="path75"
       transform="matrix(1,0,0,-1,0,329)"
       d="m 200.625,53.3125 0,-3.949219"
       style="fill:none;stroke:#000000;stroke-width:0.75;stroke-linecap:butt;stroke-linejoin:miter;stroke-miterlimit:10;stroke-opacity:1"
       inkscape:connector-curvature="0" />
    <path
       id="path77"
       transform="matrix(1,0,0,-1,0,329)"
       d="m 213.90234,53.3125 0,-3.949219"
       style="fill:none;stroke:#000000;stroke-width:0.75;stroke-linecap:butt;stroke-linejoin:miter;stroke-miterlimit:10;stroke-opacity:1"
       inkscape:connector-curvature="0" />
    <path
       id="path79"
       transform="matrix(1,0,0,-1,0,329)"
       d="m 227.17578,53.3125 0,-3.949219"
       style="fill:none;stroke:#000000;stroke-width:0.75;stroke-linecap:butt;stroke-linejoin:miter;stroke-miterlimit:10;stroke-opacity:1"
       inkscape:connector-curvature="0" />
    <path
       id="path81"
       transform="matrix(1,0,0,-1,0,329)"
       d="m 240.45312,53.3125 0,-3.949219"
       style="fill:none;stroke:#000000;stroke-width:0.75;stroke-linecap:butt;stroke-linejoin:miter;stroke-miterlimit:10;stroke-opacity:1"
       inkscape:connector-curvature="0" />
    <path
       id="path83"
       transform="matrix(1,0,0,-1,0,329)"
       d="m 253.73047,57.261719 0,-7.898438"
       style="fill:none;stroke:#000000;stroke-width:0.75;stroke-linecap:butt;stroke-linejoin:miter;stroke-miterlimit:10;stroke-opacity:1"
       inkscape:connector-curvature="0" />
    <path
       id="path85"
       d="m 267.00391,53.3125 0,-3.949219"
       style="fill:none;stroke:#000000;stroke-width:0.75;stroke-linecap:butt;stroke-linejoin:miter;stroke-miterlimit:10;stroke-opacity:1"
       transform="matrix(1,0,0,-1,0,329)"
       inkscape:connector-curvature="0" />
    <path
       id="path87"
       transform="matrix(1,0,0,-1,0,329)"
       d="m 280.28125,53.3125 0,-3.949219"
       style="fill:none;stroke:#000000;stroke-width:0.75;stroke-linecap:butt;stroke-linejoin:miter;stroke-miterlimit:10;stroke-opacity:1"
       inkscape:connector-curvature="0" />
    <path
       id="path89"
       transform="matrix(1,0,0,-1,0,329)"
       d="m 293.55859,53.3125 0,-3.949219"
       style="fill:none;stroke:#000000;stroke-width:0.75;stroke-linecap:butt;stroke-linejoin:miter;stroke-miterlimit:10;stroke-opacity:1"
       inkscape:connector-curvature="0" />
    <path
       id="path91"
       transform="matrix(1,0,0,-1,0,329)"
       d="m 306.83203,53.3125 0,-3.949219"
       style="fill:none;stroke:#000000;stroke-width:0.75;stroke-linecap:butt;stroke-linejoin:miter;stroke-miterlimit:10;stroke-opacity:1"
       inkscape:connector-curvature="0" />
    <path
       id="path93"
       transform="matrix(1,0,0,-1,0,329)"
       d="m 320.10937,57.261719 0,-7.898438"
       style="fill:none;stroke:#000000;stroke-width:0.75;stroke-linecap:butt;stroke-linejoin:miter;stroke-miterlimit:10;stroke-opacity:1"
       inkscape:connector-curvature="0" />
    <path
       id="path95"
       transform="matrix(1,0,0,-1,0,329)"
       d="m 333.38672,53.3125 0,-3.949219"
       style="fill:none;stroke:#000000;stroke-width:0.75;stroke-linecap:butt;stroke-linejoin:miter;stroke-miterlimit:10;stroke-opacity:1"
       inkscape:connector-curvature="0" />
    <path
       id="path97"
       transform="matrix(1,0,0,-1,0,329)"
       d="m 346.66016,53.3125 0,-3.949219"
       style="fill:none;stroke:#000000;stroke-width:0.75;stroke-linecap:butt;stroke-linejoin:miter;stroke-miterlimit:10;stroke-opacity:1"
       inkscape:connector-curvature="0" />
    <path
       id="path99"
       transform="matrix(1,0,0,-1,0,329)"
       d="m 359.9375,53.3125 0,-3.949219"
       style="fill:none;stroke:#000000;stroke-width:0.75;stroke-linecap:butt;stroke-linejoin:miter;stroke-miterlimit:10;stroke-opacity:1"
       inkscape:connector-curvature="0" />
    <path
       id="path101"
       transform="matrix(1,0,0,-1,0,329)"
       d="m 373.21484,53.3125 0,-3.949219"
       style="fill:none;stroke:#000000;stroke-width:0.75;stroke-linecap:butt;stroke-linejoin:miter;stroke-miterlimit:10;stroke-opacity:1"
       inkscape:connector-curvature="0" />
    <path
       id="path103"
       transform="matrix(1,0,0,-1,0,329)"
       d="m 386.48828,57.261719 0,-7.898438"
       style="fill:none;stroke:#000000;stroke-width:0.75;stroke-linecap:butt;stroke-linejoin:miter;stroke-miterlimit:10;stroke-opacity:1"
       inkscape:connector-curvature="0" />
    <path
       id="path105"
       transform="matrix(1,0,0,-1,0,329)"
       d="m 399.76562,53.3125 0,-3.949219"
       style="fill:none;stroke:#000000;stroke-width:0.75;stroke-linecap:butt;stroke-linejoin:miter;stroke-miterlimit:10;stroke-opacity:1"
       inkscape:connector-curvature="0" />
    <path
       id="path107"
       transform="matrix(1,0,0,-1,0,329)"
       d="m 413.03906,53.3125 0,-3.949219"
       style="fill:none;stroke:#000000;stroke-width:0.75;stroke-linecap:butt;stroke-linejoin:miter;stroke-miterlimit:10;stroke-opacity:1"
       inkscape:connector-curvature="0" />
    <path
       id="path109"
       transform="matrix(1,0,0,-1,0,329)"
       d="m 426.31641,53.3125 0,-3.949219"
       style="fill:none;stroke:#000000;stroke-width:0.75;stroke-linecap:butt;stroke-linejoin:miter;stroke-miterlimit:10;stroke-opacity:1"
       inkscape:connector-curvature="0" />
    <path
       id="path111"
       transform="matrix(1,0,0,-1,0,329)"
       d="m 439.59375,53.3125 0,-3.949219"
       style="fill:none;stroke:#000000;stroke-width:0.75;stroke-linecap:butt;stroke-linejoin:miter;stroke-miterlimit:10;stroke-opacity:1"
       inkscape:connector-curvature="0" />
    <path
       id="path113"
       transform="matrix(1,0,0,-1,0,329)"
       d="m 452.86719,57.261719 0,-7.898438"
       style="fill:none;stroke:#000000;stroke-width:0.75;stroke-linecap:butt;stroke-linejoin:miter;stroke-miterlimit:10;stroke-opacity:1"
       inkscape:connector-curvature="0" />
    <path
       id="path115"
       transform="matrix(1,0,0,-1,0,329)"
       d="m 120.96875,57.261719 0,-7.898438"
       style="fill:none;stroke:#000000;stroke-width:0.75;stroke-linecap:butt;stroke-linejoin:miter;stroke-miterlimit:10;stroke-opacity:1"
       inkscape:connector-curvature="0" />
    <path
       id="path117"
       transform="matrix(1,0,0,-1,0,329)"
       d="m 107.69531,53.3125 0,-3.949219"
       style="fill:none;stroke:#000000;stroke-width:0.75;stroke-linecap:butt;stroke-linejoin:miter;stroke-miterlimit:10;stroke-opacity:1"
       inkscape:connector-curvature="0" />
    <path
       id="path119"
       transform="matrix(1,0,0,-1,0,329)"
       d="m 94.417969,53.3125 0,-3.949219"
       style="fill:none;stroke:#000000;stroke-width:0.75;stroke-linecap:butt;stroke-linejoin:miter;stroke-miterlimit:10;stroke-opacity:1"
       inkscape:connector-curvature="0" />
    <path
       id="path121"
       transform="matrix(1,0,0,-1,0,329)"
       d="m 81.140625,53.3125 0,-3.949219"
       style="fill:none;stroke:#000000;stroke-width:0.75;stroke-linecap:butt;stroke-linejoin:miter;stroke-miterlimit:10;stroke-opacity:1"
       inkscape:connector-curvature="0" />
    <path
       id="path123"
       transform="matrix(1,0,0,-1,0,329)"
       d="m 67.867188,53.3125 0,-3.949219"
       style="fill:none;stroke:#000000;stroke-width:0.75;stroke-linecap:butt;stroke-linejoin:miter;stroke-miterlimit:10;stroke-opacity:1"
       inkscape:connector-curvature="0" />
    <path
       id="path125"
       transform="matrix(1,0,0,-1,0,329)"
       d="m 452.86719,57.261719 0,-7.898438"
       style="fill:none;stroke:#000000;stroke-width:0.75;stroke-linecap:butt;stroke-linejoin:miter;stroke-miterlimit:10;stroke-opacity:1"
       inkscape:connector-curvature="0" />
    <path
       id="path127"
       transform="matrix(1,0,0,-1,0,329)"
       d="m 466.14453,53.3125 0,-3.949219"
       style="fill:none;stroke:#000000;stroke-width:0.75;stroke-linecap:butt;stroke-linejoin:miter;stroke-miterlimit:10;stroke-opacity:1"
       inkscape:connector-curvature="0" />
    <path
       id="path129"
       transform="matrix(1,0,0,-1,0,329)"
       d="m 479.42187,53.3125 0,-3.949219"
       style="fill:none;stroke:#000000;stroke-width:0.75;stroke-linecap:butt;stroke-linejoin:miter;stroke-miterlimit:10;stroke-opacity:1"
       inkscape:connector-curvature="0" />
    <path
       id="path131"
       transform="matrix(1,0,0,-1,0,329)"
       d="m 492.69531,53.3125 0,-3.949219"
       style="fill:none;stroke:#000000;stroke-width:0.75;stroke-linecap:butt;stroke-linejoin:miter;stroke-miterlimit:10;stroke-opacity:1"
       inkscape:connector-curvature="0" />
    <path
       id="path133"
       transform="matrix(1,0,0,-1,0,329)"
       d="m 505.97266,53.3125 0,-3.949219"
       style="fill:none;stroke:#000000;stroke-width:0.75;stroke-linecap:butt;stroke-linejoin:miter;stroke-miterlimit:10;stroke-opacity:1"
       inkscape:connector-curvature="0" />
    <path
       id="path135"
       d="m 117.12891,289.99609 c 0,-4.60937 -1.57813,-6.95312 -4.45313,-6.95312 -2.875,0 -4.48437,2.375 -4.48437,6.84375 0,4.46875 1.625,6.8125 4.48437,6.8125 2.8125,0 4.45313,-2.34375 4.45313,-6.70313 z m -1.92188,-0.15625 c 0,3.76563 -0.73437,5.39063 -2.57812,5.39063 -1.73438,0 -2.5,-1.70313 -2.5,-5.32813 0,-3.64062 0.76562,-5.3125 2.54687,-5.3125 1.78125,0 2.53125,1.6875 2.53125,5.25 z m 0,0"
       style="fill:#000000;fill-opacity:1;fill-rule:nonzero;stroke:none"
       inkscape:connector-curvature="0" />
    <path
       id="path137"
       d="m 121.625,296.38672 0,-2.01563 -2.1875,0 0,2.04688 2.1875,0 z m 0,0"
       style="fill:#000000;fill-opacity:1;fill-rule:nonzero;stroke:none"
       inkscape:connector-curvature="0" />
    <path
       id="path139"
       d="m 132.86328,291.98047 c 0,-2.625 -1.84375,-4.40625 -4.39062,-4.40625 -0.9375,0 -1.78125,0.26562 -2.32813,0.65625 l 0.48438,-3.1875 5.54687,0 0,-1.71875 -7.07812,0 -1.01563,7.04687 1.70313,0 c 0.78125,-0.92187 1.34375,-1.23437 2.375,-1.23437 1.78125,0 2.78125,1.09375 2.78125,3.0625 0,1.92187 -0.98438,2.9375 -2.78125,2.9375 -1.4375,0 -2.20313,-0.67188 -2.625,-2.21875 l -1.85938,0 c 0.53125,2.6875 2.17188,3.78125 4.53125,3.78125 2.67188,0 4.65625,-1.90625 4.65625,-4.71875 z m 0,0"
       style="fill:#000000;fill-opacity:1;fill-rule:nonzero;stroke:none"
       inkscape:connector-curvature="0" />
    <path
       id="path141"
       d="m 189.88281,296.38672 0,-13.34375 -1.3125,0 c -0.59375,2.09375 -0.84375,2.32812 -3.51562,2.65625 l 0,1.26562 2.9375,0 0,9.45313 1.89062,0 z m 0,0"
       style="fill:#000000;fill-opacity:1;fill-rule:nonzero;stroke:none"
       inkscape:connector-curvature="0" />
    <path
       id="path143"
       d="m 246.90234,296.38672 0,-13.34375 -1.3125,0 c -0.59375,2.09375 -0.84375,2.32812 -3.51562,2.65625 l 0,1.26562 2.9375,0 0,9.45313 1.89062,0 z m 0,0"
       style="fill:#000000;fill-opacity:1;fill-rule:nonzero;stroke:none"
       inkscape:connector-curvature="0" />
    <path
       id="path145"
       d="m 254.39844,296.38672 0,-2.01563 -2.1875,0 0,2.04688 2.1875,0 z m 0,0"
       style="fill:#000000;fill-opacity:1;fill-rule:nonzero;stroke:none"
       inkscape:connector-curvature="0" />
    <path
       id="path147"
       d="m 265.63672,291.98047 c 0,-2.625 -1.84375,-4.40625 -4.39063,-4.40625 -0.9375,0 -1.78125,0.26562 -2.32812,0.65625 l 0.48437,-3.1875 5.54688,0 0,-1.71875 -7.07813,0 -1.01562,7.04687 1.70312,0 c 0.78125,-0.92187 1.34375,-1.23437 2.375,-1.23437 1.78125,0 2.78125,1.09375 2.78125,3.0625 0,1.92187 -0.98437,2.9375 -2.78125,2.9375 -1.4375,0 -2.20312,-0.67188 -2.625,-2.21875 l -1.85937,0 c 0.53125,2.6875 2.17187,3.78125 4.53125,3.78125 2.67187,0 4.65625,-1.90625 4.65625,-4.71875 z m 0,0"
       style="fill:#000000;fill-opacity:1;fill-rule:nonzero;stroke:none"
       inkscape:connector-curvature="0" />
    <path
       id="path149"
       d="m 324.10547,286.99609 c 0,-2.25 -1.85938,-3.95312 -4.35938,-3.95312 -2.71875,0 -4.42187,1.4375 -4.51562,4.70312 l 1.85937,0 c 0.15625,-2.26562 0.96875,-3.17187 2.59375,-3.17187 1.5,0 2.48438,1.03125 2.48438,2.45312 0,1.04688 -0.57813,1.92188 -1.75,2.59375 l -1.73438,0.96875 c -2.76562,1.57813 -3.60937,2.875 -3.76562,5.82813 l 9.09375,0 0,-1.71875 -6.98438,0 c 0.15625,-1.03125 0.71875,-1.6875 2.35938,-2.64063 l 1.875,-1.01562 c 1.84375,-1 2.84375,-2.42188 2.84375,-4.04688 z m 0,0"
       style="fill:#000000;fill-opacity:1;fill-rule:nonzero;stroke:none"
       inkscape:connector-curvature="0" />
    <path
       id="path151"
       d="m 382.75391,286.99609 c 0,-2.25 -1.85938,-3.95312 -4.35938,-3.95312 -2.71875,0 -4.42187,1.4375 -4.51562,4.70312 l 1.85937,0 c 0.15625,-2.26562 0.96875,-3.17187 2.59375,-3.17187 1.5,0 2.48438,1.03125 2.48438,2.45312 0,1.04688 -0.57813,1.92188 -1.75,2.59375 l -1.73438,0.96875 c -2.76562,1.57813 -3.60937,2.875 -3.76562,5.82813 l 9.09375,0 0,-1.71875 -6.98438,0 c 0.15625,-1.03125 0.71875,-1.6875 2.35938,-2.64063 l 1.875,-1.01562 c 1.84375,-1 2.84375,-2.42188 2.84375,-4.04688 z m 0,0"
       style="fill:#000000;fill-opacity:1;fill-rule:nonzero;stroke:none"
       inkscape:connector-curvature="0" />
    <path
       id="path153"
       d="m 387.16797,296.38672 0,-2.01563 -2.1875,0 0,2.04688 2.1875,0 z m 0,0"
       style="fill:#000000;fill-opacity:1;fill-rule:nonzero;stroke:none"
       inkscape:connector-curvature="0" />
    <path
       id="path155"
       d="m 398.41016,291.98047 c 0,-2.625 -1.84375,-4.40625 -4.39063,-4.40625 -0.9375,0 -1.78125,0.26562 -2.32812,0.65625 l 0.48437,-3.1875 5.54688,0 0,-1.71875 -7.07813,0 -1.01562,7.04687 1.70312,0 c 0.78125,-0.92187 1.34375,-1.23437 2.375,-1.23437 1.78125,0 2.78125,1.09375 2.78125,3.0625 0,1.92187 -0.98437,2.9375 -2.78125,2.9375 -1.4375,0 -2.20312,-0.67188 -2.625,-2.21875 l -1.85937,0 c 0.53125,2.6875 2.17187,3.78125 4.53125,3.78125 2.67187,0 4.65625,-1.90625 4.65625,-4.71875 z m 0,0"
       style="fill:#000000;fill-opacity:1;fill-rule:nonzero;stroke:none"
       inkscape:connector-curvature="0" />
    <path
       id="path157"
       d="m 456.78516,292.52734 c 0,-1.625 -0.76563,-2.60937 -2.23438,-3.09375 1.10938,-0.45312 1.84375,-1.35937 1.84375,-2.6875 0,-2.28125 -1.64062,-3.70312 -4.15625,-3.70312 -2.6875,0 -4.23437,1.51562 -4.29687,4.375 l 1.89062,0 c 0.0312,-2 0.73438,-2.84375 2.42188,-2.84375 1.45312,0 2.20312,0.82812 2.20312,2.23437 0,1.42188 -0.48437,1.95313 -3.25,1.95313 l 0,1.46875 1.03125,0 c 1.8125,0 2.60938,0.82812 2.60938,2.3125 0,1.67187 -0.89063,2.59375 -2.60938,2.59375 -1.8125,0 -2.57812,-0.82813 -2.70312,-2.82813 l -1.875,0 c 0.20312,3.01563 1.79687,4.39063 4.51562,4.39063 2.73438,0 4.60938,-1.67188 4.60938,-4.17188 z m 0,0"
       style="fill:#000000;fill-opacity:1;fill-rule:nonzero;stroke:none"
       inkscape:connector-curvature="0" />
    <path
       id="path219"
       transform="matrix(1,0,0,-1,0,329)"
       d="m 56.691406,49.363281 0,230.355469"
       style="fill:none;stroke:#000000;stroke-width:0.75;stroke-linecap:butt;stroke-linejoin:miter;stroke-miterlimit:10;stroke-opacity:1"
       inkscape:connector-curvature="0" />
    <path
       id="path221"
       transform="matrix(1,0,0,-1,0,329)"
       d="m 68.597656,49.363281 -11.90625,0"
       style="fill:none;stroke:#000000;stroke-width:0.75;stroke-linecap:butt;stroke-linejoin:miter;stroke-miterlimit:10;stroke-opacity:1"
       inkscape:connector-curvature="0" />
    <path
       id="path223"
       transform="matrix(1,0,0,-1,0,329)"
       d="m 62.644531,58.960938 -5.953125,0"
       style="fill:none;stroke:#000000;stroke-width:0.75;stroke-linecap:butt;stroke-linejoin:miter;stroke-miterlimit:10;stroke-opacity:1"
       inkscape:connector-curvature="0" />
    <path
       id="path225"
       transform="matrix(1,0,0,-1,0,329)"
       d="m 62.644531,68.558594 -5.953125,0"
       style="fill:none;stroke:#000000;stroke-width:0.75;stroke-linecap:butt;stroke-linejoin:miter;stroke-miterlimit:10;stroke-opacity:1"
       inkscape:connector-curvature="0" />
    <path
       id="path227"
       transform="matrix(1,0,0,-1,0,329)"
       d="m 62.644531,78.15625 -5.953125,0"
       style="fill:none;stroke:#000000;stroke-width:0.75;stroke-linecap:butt;stroke-linejoin:miter;stroke-miterlimit:10;stroke-opacity:1"
       inkscape:connector-curvature="0" />
    <path
       id="path229"
       transform="matrix(1,0,0,-1,0,329)"
       d="m 68.597656,87.753906 -11.90625,0"
       style="fill:none;stroke:#000000;stroke-width:0.75;stroke-linecap:butt;stroke-linejoin:miter;stroke-miterlimit:10;stroke-opacity:1"
       inkscape:connector-curvature="0" />
    <path
       id="path231"
       transform="matrix(1,0,0,-1,0,329)"
       d="m 62.644531,97.351562 -5.953125,0"
       style="fill:none;stroke:#000000;stroke-width:0.75;stroke-linecap:butt;stroke-linejoin:miter;stroke-miterlimit:10;stroke-opacity:1"
       inkscape:connector-curvature="0" />
    <path
       id="path233"
       transform="matrix(1,0,0,-1,0,329)"
       d="m 62.644531,106.94922 -5.953125,0"
       style="fill:none;stroke:#000000;stroke-width:0.75;stroke-linecap:butt;stroke-linejoin:miter;stroke-miterlimit:10;stroke-opacity:1"
       inkscape:connector-curvature="0" />
    <path
       id="path235"
       transform="matrix(1,0,0,-1,0,329)"
       d="m 62.644531,116.55078 -5.953125,0"
       style="fill:none;stroke:#000000;stroke-width:0.75;stroke-linecap:butt;stroke-linejoin:miter;stroke-miterlimit:10;stroke-opacity:1"
       inkscape:connector-curvature="0" />
    <path
       id="path237"
       transform="matrix(1,0,0,-1,0,329)"
       d="m 68.597656,126.14844 -11.90625,0"
       style="fill:none;stroke:#000000;stroke-width:0.75;stroke-linecap:butt;stroke-linejoin:miter;stroke-miterlimit:10;stroke-opacity:1"
       inkscape:connector-curvature="0" />
    <path
       id="path239"
       transform="matrix(1,0,0,-1,0,329)"
       d="m 62.644531,135.74609 -5.953125,0"
       style="fill:none;stroke:#000000;stroke-width:0.75;stroke-linecap:butt;stroke-linejoin:miter;stroke-miterlimit:10;stroke-opacity:1"
       inkscape:connector-curvature="0" />
    <path
       id="path241"
       transform="matrix(1,0,0,-1,0,329)"
       d="m 62.644531,145.34375 -5.953125,0"
       style="fill:none;stroke:#000000;stroke-width:0.75;stroke-linecap:butt;stroke-linejoin:miter;stroke-miterlimit:10;stroke-opacity:1"
       inkscape:connector-curvature="0" />
    <path
       id="path243"
       transform="matrix(1,0,0,-1,0,329)"
       d="m 62.644531,154.94141 -5.953125,0"
       style="fill:none;stroke:#000000;stroke-width:0.75;stroke-linecap:butt;stroke-linejoin:miter;stroke-miterlimit:10;stroke-opacity:1"
       inkscape:connector-curvature="0" />
    <path
       id="path245"
       transform="matrix(1,0,0,-1,0,329)"
       d="m 68.597656,164.53906 -11.90625,0"
       style="fill:none;stroke:#000000;stroke-width:0.75;stroke-linecap:butt;stroke-linejoin:miter;stroke-miterlimit:10;stroke-opacity:1"
       inkscape:connector-curvature="0" />
    <path
       id="path247"
       transform="matrix(1,0,0,-1,0,329)"
       d="m 62.644531,174.13672 -5.953125,0"
       style="fill:none;stroke:#000000;stroke-width:0.75;stroke-linecap:butt;stroke-linejoin:miter;stroke-miterlimit:10;stroke-opacity:1"
       inkscape:connector-curvature="0" />
    <path
       id="path249"
       transform="matrix(1,0,0,-1,0,329)"
       d="m 62.644531,183.73437 -5.953125,0"
       style="fill:none;stroke:#000000;stroke-width:0.75;stroke-linecap:butt;stroke-linejoin:miter;stroke-miterlimit:10;stroke-opacity:1"
       inkscape:connector-curvature="0" />
    <path
       id="path251"
       transform="matrix(1,0,0,-1,0,329)"
       d="m 62.644531,193.33594 -5.953125,0"
       style="fill:none;stroke:#000000;stroke-width:0.75;stroke-linecap:butt;stroke-linejoin:miter;stroke-miterlimit:10;stroke-opacity:1"
       inkscape:connector-curvature="0" />
    <path
       id="path253"
       transform="matrix(1,0,0,-1,0,329)"
       d="m 68.597656,202.93359 -11.90625,0"
       style="fill:none;stroke:#000000;stroke-width:0.75;stroke-linecap:butt;stroke-linejoin:miter;stroke-miterlimit:10;stroke-opacity:1"
       inkscape:connector-curvature="0" />
    <path
       id="path255"
       transform="matrix(1,0,0,-1,0,329)"
       d="m 62.644531,212.53125 -5.953125,0"
       style="fill:none;stroke:#000000;stroke-width:0.75;stroke-linecap:butt;stroke-linejoin:miter;stroke-miterlimit:10;stroke-opacity:1"
       inkscape:connector-curvature="0" />
    <path
       id="path257"
       transform="matrix(1,0,0,-1,0,329)"
       d="m 62.644531,222.12891 -5.953125,0"
       style="fill:none;stroke:#000000;stroke-width:0.75;stroke-linecap:butt;stroke-linejoin:miter;stroke-miterlimit:10;stroke-opacity:1"
       inkscape:connector-curvature="0" />
    <path
       id="path259"
       transform="matrix(1,0,0,-1,0,329)"
       d="m 62.644531,231.72656 -5.953125,0"
       style="fill:none;stroke:#000000;stroke-width:0.75;stroke-linecap:butt;stroke-linejoin:miter;stroke-miterlimit:10;stroke-opacity:1"
       inkscape:connector-curvature="0" />
    <path
       id="path261"
       transform="matrix(1,0,0,-1,0,329)"
       d="m 68.597656,241.32422 -11.90625,0"
       style="fill:none;stroke:#000000;stroke-width:0.75;stroke-linecap:butt;stroke-linejoin:miter;stroke-miterlimit:10;stroke-opacity:1"
       inkscape:connector-curvature="0" />
    <path
       id="path263"
       transform="matrix(1,0,0,-1,0,329)"
       d="m 62.644531,250.92187 -5.953125,0"
       style="fill:none;stroke:#000000;stroke-width:0.75;stroke-linecap:butt;stroke-linejoin:miter;stroke-miterlimit:10;stroke-opacity:1"
       inkscape:connector-curvature="0" />
    <path
       id="path265"
       transform="matrix(1,0,0,-1,0,329)"
       d="m 62.644531,260.51953 -5.953125,0"
       style="fill:none;stroke:#000000;stroke-width:0.75;stroke-linecap:butt;stroke-linejoin:miter;stroke-miterlimit:10;stroke-opacity:1"
       inkscape:connector-curvature="0" />
    <path
       id="path267"
       transform="matrix(1,0,0,-1,0,329)"
       d="m 62.644531,270.11719 -5.953125,0"
       style="fill:none;stroke:#000000;stroke-width:0.75;stroke-linecap:butt;stroke-linejoin:miter;stroke-miterlimit:10;stroke-opacity:1"
       inkscape:connector-curvature="0" />
    <path
       id="path269"
       transform="matrix(1,0,0,-1,0,329)"
       d="m 68.597656,279.71875 -11.90625,0"
       style="fill:none;stroke:#000000;stroke-width:0.75;stroke-linecap:butt;stroke-linejoin:miter;stroke-miterlimit:10;stroke-opacity:1"
       inkscape:connector-curvature="0" />
    <path
       id="path271"
       d="m 53.59375,280.22266 c 0,-4.60938 -1.578125,-6.95313 -4.453125,-6.95313 -2.875,0 -4.484375,2.375 -4.484375,6.84375 0,4.46875 1.625,6.8125 4.484375,6.8125 2.8125,0 4.453125,-2.34375 4.453125,-6.70312 z m -1.921875,-0.15625 c 0,3.76562 -0.734375,5.39062 -2.578125,5.39062 -1.734375,0 -2.5,-1.70312 -2.5,-5.32812 0,-3.64063 0.765625,-5.3125 2.546875,-5.3125 1.78125,0 2.53125,1.6875 2.53125,5.25 z m 0,0"
       style="fill:#000000;fill-opacity:1;fill-rule:nonzero;stroke:none"
       inkscape:connector-curvature="0" />
    <path
       id="path273"
       d="m 38.117188,241.9375 c 0,-4.60938 -1.578126,-6.95313 -4.453126,-6.95313 -2.875,0 -4.484374,2.375 -4.484374,6.84375 0,4.46875 1.625,6.8125 4.484374,6.8125 2.8125,0 4.453126,-2.34375 4.453126,-6.70312 z m -1.921876,-0.15625 c 0,3.76562 -0.734374,5.39062 -2.578124,5.39062 -1.734376,0 -2.5,-1.70312 -2.5,-5.32812 0,-3.64063 0.765624,-5.3125 2.546874,-5.3125 1.78125,0 2.53125,1.6875 2.53125,5.25 z m 0,0"
       style="fill:#000000;fill-opacity:1;fill-rule:nonzero;stroke:none"
       inkscape:connector-curvature="0" />
    <path
       id="path275"
       d="m 42.613281,248.32812 0,-2.01562 -2.1875,0 0,2.04687 2.1875,0 z m 0,0"
       style="fill:#000000;fill-opacity:1;fill-rule:nonzero;stroke:none"
       inkscape:connector-curvature="0" />
    <path
       id="path277"
       d="m 53.820312,238.9375 c 0,-2.25 -1.859374,-3.95313 -4.359374,-3.95313 -2.71875,0 -4.421876,1.4375 -4.515626,4.70313 l 1.859376,0 c 0.15625,-2.26563 0.96875,-3.17188 2.59375,-3.17188 1.5,0 2.484374,1.03125 2.484374,2.45313 0,1.04687 -0.578124,1.92187 -1.75,2.59375 l -1.734374,0.96875 c -2.765626,1.57812 -3.609376,2.875 -3.765626,5.82812 l 9.09375,0 0,-1.71875 -6.984374,0 c 0.15625,-1.03125 0.71875,-1.6875 2.359374,-2.64062 l 1.875,-1.01563 c 1.84375,-1 2.84375,-2.42187 2.84375,-4.04687 z m 0,0"
       style="fill:#000000;fill-opacity:1;fill-rule:nonzero;stroke:none"
       inkscape:connector-curvature="0" />
    <path
       id="path279"
       d="m 37.304688,203.65234 c 0,-4.60937 -1.578126,-6.95312 -4.453126,-6.95312 -2.875,0 -4.484374,2.375 -4.484374,6.84375 0,4.46875 1.625,6.8125 4.484374,6.8125 2.8125,0 4.453126,-2.34375 4.453126,-6.70313 z m -1.921876,-0.15625 c 0,3.76563 -0.734374,5.39063 -2.578124,5.39063 -1.734376,0 -2.5,-1.70313 -2.5,-5.32813 0,-3.64062 0.765624,-5.3125 2.546874,-5.3125 1.78125,0 2.53125,1.6875 2.53125,5.25 z m 0,0"
       style="fill:#000000;fill-opacity:1;fill-rule:nonzero;stroke:none"
       inkscape:connector-curvature="0" />
    <path
       id="path281"
       d="m 41.796875,210.04297 0,-2.01563 -2.1875,0 0,2.04688 2.1875,0 z m 0,0"
       style="fill:#000000;fill-opacity:1;fill-rule:nonzero;stroke:none"
       inkscape:connector-curvature="0" />
    <path
       id="path283"
       d="m 53.179688,206.85547 0,-1.54688 -1.96875,0 0,-8.60937 -1.40625,0 -6.09375,8.42187 0,1.76563 5.609374,0 0,3.1875 1.890626,0 0,-3.1875 1.96875,0 z m -3.734376,-1.54688 -4.03125,0 4.109376,-5.70312 -0.203126,-0.0469 0,5.75 z m 0,0"
       style="fill:#000000;fill-opacity:1;fill-rule:nonzero;stroke:none"
       inkscape:connector-curvature="0" />
    <path
       id="path285"
       d="m 37.304688,165.36719 c 0,-4.60938 -1.578126,-6.95313 -4.453126,-6.95313 -2.875,0 -4.484374,2.375 -4.484374,6.84375 0,4.46875 1.625,6.8125 4.484374,6.8125 2.8125,0 4.453126,-2.34375 4.453126,-6.70312 z m -1.921876,-0.15625 c 0,3.76562 -0.734374,5.39062 -2.578124,5.39062 -1.734376,0 -2.5,-1.70312 -2.5,-5.32812 0,-3.64063 0.765624,-5.3125 2.546874,-5.3125 1.78125,0 2.53125,1.6875 2.53125,5.25 z m 0,0"
       style="fill:#000000;fill-opacity:1;fill-rule:nonzero;stroke:none"
       inkscape:connector-curvature="0" />
    <path
       id="path287"
       d="m 41.796875,171.75781 0,-2.01562 -2.1875,0 0,2.04687 2.1875,0 z m 0,0"
       style="fill:#000000;fill-opacity:1;fill-rule:nonzero;stroke:none"
       inkscape:connector-curvature="0" />
    <path
       id="path289"
       d="m 53.039062,167.63281 c 0,-2.46875 -1.796874,-4.20312 -4.171874,-4.20312 -1.3125,0 -2.4375,0.53125 -3.15625,1.5 l 0.21875,0.0469 c 0.01562,-3.25 0.953124,-5.01562 2.84375,-5.01562 1.15625,0 1.828124,0.70312 2.109374,2.01562 l 1.875,0 c -0.3125,-2.21875 -1.84375,-3.5625 -3.875,-3.5625 -3.09375,0 -4.890624,2.65625 -4.890624,7.28125 0,4.14063 1.5625,6.375 4.59375,6.375 2.53125,0 4.453124,-1.84375 4.453124,-4.4375 z m -1.921874,0.125 c 0,1.67188 -1,2.75 -2.515626,2.75 -1.53125,0 -2.578124,-1.14062 -2.578124,-2.84375 0,-1.64062 1,-2.67187 2.640624,-2.67187 1.59375,0 2.453126,0.98437 2.453126,2.76562 z m 0,0"
       style="fill:#000000;fill-opacity:1;fill-rule:nonzero;stroke:none"
       inkscape:connector-curvature="0" />
    <path
       id="path291"
       d="m 37.304688,126.26953 c 0,-4.60937 -1.578126,-6.95312 -4.453126,-6.95312 -2.875,0 -4.484374,2.375 -4.484374,6.84375 0,4.46875 1.625,6.8125 4.484374,6.8125 2.8125,0 4.453126,-2.34375 4.453126,-6.70313 z m -1.921876,-0.15625 c 0,3.76563 -0.734374,5.39063 -2.578124,5.39063 -1.734376,0 -2.5,-1.70313 -2.5,-5.32813 0,-3.64062 0.765624,-5.3125 2.546874,-5.3125 1.78125,0 2.53125,1.6875 2.53125,5.25 z m 0,0"
       style="fill:#000000;fill-opacity:1;fill-rule:nonzero;stroke:none"
       inkscape:connector-curvature="0" />
    <path
       id="path293"
       d="m 41.796875,132.66016 0,-2.01563 -2.1875,0 0,2.04688 2.1875,0 z m 0,0"
       style="fill:#000000;fill-opacity:1;fill-rule:nonzero;stroke:none"
       inkscape:connector-curvature="0" />
    <path
       id="path295"
       d="m 53.039062,128.91016 c 0,-1.48438 -0.859374,-2.5625 -2.28125,-3.25 1.328126,-0.78125 1.8125,-1.5 1.8125,-2.75 0,-2.07813 -1.734374,-3.59375 -4.09375,-3.59375 -2.34375,0 -4.125,1.51562 -4.125,3.59375 0,1.23437 0.484376,1.95312 1.796876,2.75 -1.390626,0.6875 -2.265626,1.76562 -2.265626,3.23437 0,2.42188 1.96875,4.07813 4.59375,4.07813 2.625,0 4.5625,-1.65625 4.5625,-4.0625 z m -2.390624,-5.95313 c 0,1.23438 -0.796876,2 -2.171876,2 -1.390624,0 -2.203124,-0.76562 -2.203124,-2.03125 0,-1.26562 0.8125,-2.0625 2.203124,-2.0625 1.40625,0 2.171876,0.79688 2.171876,2.09375 z m 0.46875,5.96875 c 0,1.57813 -1,2.48438 -2.6875,2.48438 -1.609376,0 -2.625,-0.92188 -2.625,-2.48438 0,-1.5625 1.015624,-2.48437 2.671874,-2.48437 1.640626,0 2.640626,0.92187 2.640626,2.48437 z m 0,0"
       style="fill:#000000;fill-opacity:1;fill-rule:nonzero;stroke:none"
       inkscape:connector-curvature="0" />
    <path
       id="path297"
       d="m 53.039062,94.378906 0,-13.34375 -1.3125,0 c -0.59375,2.09375 -0.84375,2.328125 -3.515624,2.65625 l 0,1.265625 2.9375,0 0,9.453125 1.890624,0 z m 0,0"
       style="fill:#000000;fill-opacity:1;fill-rule:nonzero;stroke:none"
       inkscape:connector-curvature="0" />
    <path
       id="path299"
       d="m 35.117188,56.09375 0,-13.34375 -1.3125,0 c -0.59375,2.09375 -0.84375,2.328125 -3.515626,2.65625 l 0,1.265625 2.9375,0 0,9.453125 1.890626,0 z m 0,0"
       style="fill:#000000;fill-opacity:1;fill-rule:nonzero;stroke:none"
       inkscape:connector-curvature="0" />
    <path
       id="path301"
       d="m 42.613281,56.09375 0,-2.015625 -2.1875,0 0,2.046875 2.1875,0 z m 0,0"
       style="fill:#000000;fill-opacity:1;fill-rule:nonzero;stroke:none"
       inkscape:connector-curvature="0" />
    <path
       id="path303"
       d="m 53.820312,46.703125 c 0,-2.25 -1.859374,-3.953125 -4.359374,-3.953125 -2.71875,0 -4.421876,1.4375 -4.515626,4.703125 l 1.859376,0 c 0.15625,-2.265625 0.96875,-3.171875 2.59375,-3.171875 1.5,0 2.484374,1.03125 2.484374,2.453125 0,1.046875 -0.578124,1.921875 -1.75,2.59375 l -1.734374,0.96875 c -2.765626,1.578125 -3.609376,2.875 -3.765626,5.828125 l 9.09375,0 0,-1.71875 -6.984374,0 c 0.15625,-1.03125 0.71875,-1.6875 2.359374,-2.640625 l 1.875,-1.015625 c 1.84375,-1 2.84375,-2.421875 2.84375,-4.046875 z m 0,0"
       style="fill:#000000;fill-opacity:1;fill-rule:nonzero;stroke:none"
       inkscape:connector-curvature="0" />
    <path
       id="path453"
       transform="matrix(1,0,0,-1,0,329)"
       d="m 56.691406,279.71875 453.542964,0"
       style="fill:none;stroke:#000000;stroke-width:0.75;stroke-linecap:butt;stroke-linejoin:miter;stroke-miterlimit:10;stroke-opacity:1"
       inkscape:connector-curvature="0" />
    <path
       id="path455"
       transform="matrix(1,0,0,-1,0,329)"
       d="m 56.691406,271.82031 0,7.89844"
       style="fill:none;stroke:#000000;stroke-width:0.75;stroke-linecap:butt;stroke-linejoin:miter;stroke-miterlimit:10;stroke-opacity:1"
       inkscape:connector-curvature="0" />
    <path
       id="path599"
       transform="matrix(1,0,0,-1,0,329)"
       d="m 120.92578,69.496094 3.25781,6.515625 -6.51562,0 z m 13.26953,8.019531 3.25781,6.519531 -6.51562,0 z m 13.26563,8.59375 3.25781,6.515625 -6.51563,0 z m 13.26953,8.386719 3.25781,6.519536 -6.51562,0 z m 13.26562,7.374996 3.25782,6.51563 -6.51563,0 z m 13.26953,6.83594 3.25782,6.51563 -6.51563,0 z m 13.26563,6.14844 3.25781,6.51562 -6.51562,0 z m 13.26953,6.66406 3.25781,6.51953 -6.51953,0 z m 13.26563,5.3086 3.25781,6.51562 -6.51563,0 z m 13.26562,6.16406 3.26172,6.51953 -6.51953,0 z m 13.26953,5.05468 3.25781,6.51563 -6.51562,0 z m 13.26563,4.54297 3.25781,6.51563 -6.51563,0 z m 13.26953,3.83985 3.25781,6.51562 -6.51562,0 z m 13.26562,3.11328 3.25782,6.51562 -6.51563,0 z m 13.26953,2.90234 3.25782,6.51563 -6.51953,0 z m 13.26563,2.76563 3.25781,6.51562 -6.51562,0 z m 13.26562,2.14453 3.26172,6.51562 -6.51953,0 z m 13.26954,-0.1836 3.25781,6.51563 -6.51563,0 z m 13.26562,1.16407 3.25781,6.51562 -6.51562,0 z m 13.26953,0.63281 3.25781,6.51562 -6.51562,0 z m 13.26563,0.13672 3.25781,6.51562 -6.51563,0 z m 13.26953,-0.16016 3.25781,6.51563 -6.51562,0 z m 13.26562,-0.3164 3.25782,6.51562 -6.51563,0 z m 13.26953,-0.66797 3.25782,6.51562 -6.51563,0 z m 13.26563,-0.96485 3.25781,6.51953 -6.51562,0 z m 13.26953,-0.96093 3.25781,6.51562 -6.51953,0 z m 13.26563,-1.89844 3.25781,6.51562 -6.51563,0 z m 13.26562,-1.00391 3.26172,6.51563 -6.51953,0 z m 13.26953,-1.33203 3.25781,6.51563 -6.51562,0 z m 13.26563,-1.35937 3.25781,6.51562 -6.51563,0 z m 0,0"
       style="fill:none;stroke:#ca6100;stroke-width:0.75;stroke-linecap:butt;stroke-linejoin:miter;stroke-miterlimit:10;stroke-opacity:1"
       inkscape:connector-curvature="0" />
    <rect
       style="color:#000000;clip-rule:nonzero;display:inline;overflow:visible;visibility:visible;opacity:1;isolation:auto;mix-blend-mode:normal;color-interpolation:sRGB;color-interpolation-filters:linearRGB;solid-color:#000000;solid-opacity:1;fill:#ff0000;fill-opacity:0.21951222;fill-rule:evenodd;stroke:none;stroke-width:0.80000001;stroke-linecap:square;stroke-linejoin:miter;stroke-miterlimit:4;stroke-dasharray:2.4, 0.8;stroke-dashoffset:0;stroke-opacity:1;color-rendering:auto;image-rendering:auto;shape-rendering:auto;text-rendering:auto;enable-background:accumulate"
       id="rect9120-0"
       width="70.237755"
       height="228.76059"
       x="164.8837"
       y="50.039116" />
    <text
       xml:space="preserve"
       style="color:#000000;font-style:normal;font-variant:normal;font-weight:bold;font-stretch:normal;font-size:24px;line-height:125%;font-family:'Liberation Sans';-inkscape-font-specification:'Liberation Sans';text-indent:0;text-align:start;text-decoration:none;text-decoration-line:none;text-decoration-style:solid;text-decoration-color:#000000;letter-spacing:0px;word-spacing:0px;text-transform:none;direction:ltr;block-progression:tb;writing-mode:lr-tb;baseline-shift:baseline;text-anchor:start;white-space:normal;clip-rule:nonzero;display:inline;overflow:visible;visibility:visible;opacity:1;isolation:auto;mix-blend-mode:normal;color-interpolation:sRGB;color-interpolation-filters:linearRGB;solid-color:#000000;solid-opacity:1;fill:#000079;fill-opacity:1;fill-rule:nonzero;stroke:none;stroke-width:1.25px;stroke-linecap:butt;stroke-linejoin:miter;stroke-miterlimit:4;stroke-dasharray:none;stroke-dashoffset:0;stroke-opacity:1;color-rendering:auto;image-rendering:auto;shape-rendering:auto;text-rendering:auto;enable-background:accumulate"
       x="295.86746"
       y="104.00755"
       id="text9137"
       sodipodi:linespacing="125%"><tspan
         sodipodi:role="line"
         id="tspan9139"
         x="295.86746"
         y="104.00755">Autour de 2 kV :</tspan><tspan
         sodipodi:role="line"
         x="295.86746"
         y="134.00755"
         id="tspan9141">~8% variation</tspan></text>
    <text
       xml:space="preserve"
       style="color:#000000;font-style:normal;font-variant:normal;font-weight:bold;font-stretch:normal;font-size:24px;line-height:125%;font-family:'Liberation Sans';-inkscape-font-specification:'Liberation Sans';text-indent:0;text-align:start;text-decoration:none;text-decoration-line:none;text-decoration-style:solid;text-decoration-color:#000000;letter-spacing:0px;word-spacing:0px;text-transform:none;direction:ltr;block-progression:tb;writing-mode:lr-tb;baseline-shift:baseline;text-anchor:start;white-space:normal;clip-rule:nonzero;display:inline;overflow:visible;visibility:visible;opacity:1;isolation:auto;mix-blend-mode:normal;color-interpolation:sRGB;color-interpolation-filters:linearRGB;solid-color:#000000;solid-opacity:1;fill:#000000;fill-opacity:1;fill-rule:nonzero;stroke:none;stroke-width:1.25px;stroke-linecap:butt;stroke-linejoin:miter;stroke-miterlimit:4;stroke-dasharray:none;stroke-dashoffset:0;stroke-opacity:1;color-rendering:auto;image-rendering:auto;shape-rendering:auto;text-rendering:auto;enable-background:accumulate"
       x="109.48633"
       y="320.92758"
       id="text9143"
       sodipodi:linespacing="125%"><tspan
         sodipodi:role="line"
         id="tspan9145"
         x="109.48633"
         y="320.92758">Champ dans le liquide (kV/cm)</tspan></text>
    <g
       id="g8918"
       transform="matrix(0,-1,1,0,-216.63283,362.22088)">
      <g
         word-spacing="normal"
         letter-spacing="normal"
         font-size-adjust="none"
         font-stretch="normal"
         font-weight="normal"
         font-variant="normal"
         font-style="normal"
         stroke-miterlimit="10.433"
         xml:space="preserve"
         transform="matrix(0.47,0,0,-0.47,-82.25,425.25)"
         id="content"
         style="font-style:normal;font-variant:normal;font-weight:normal;font-stretch:normal;letter-spacing:normal;word-spacing:normal;text-anchor:start;fill:none;fill-opacity:1;fill-rule:evenodd;stroke:#000000;stroke-linecap:butt;stroke-linejoin:miter;stroke-miterlimit:10.43299961;stroke-dasharray:none;stroke-dashoffset:0;stroke-opacity:1"><path
           id="path8921"
           d="m 470.36,417.46 0.15,0.01 0.16,0 0.15,0 0.07,0 0.08,0.01 0.07,0 0.07,0.01 0.07,0.01 0.07,0.01 0.07,0.01 0.07,0.02 0.06,0.01 0.06,0.02 0.06,0.02 0.06,0.03 0.06,0.02 0.05,0.03 0.05,0.03 0.04,0.04 0.04,0.04 0.04,0.04 0.04,0.05 0.01,0.02 0.02,0.03 0.01,0.02 0.01,0.03 0.02,0.03 0.01,0.03 0,0.03 0.01,0.03 0.01,0.04 0.01,0.03 0,0.04 0,0.03 0.01,0.04 0,0.04 c 0,0.69 -0.61,0.69 -1.46,0.69 l -8.06,0 c 1.19,4.23 3.99,7.12 8.52,7.12 l 1.54,0 c 0.85,0 1.64,0 1.64,0.86 0,0.69 -0.65,0.69 -1.5,0.69 l -1.73,0 c -6.48,0 -13.16,-4.99 -13.16,-12.6 0,-5.48 3.74,-9.42 9.02,-9.42 3.23,0 6.48,1.99 6.48,2.55 0,0.14 -0.06,0.69 -0.5,0.69 -0.11,0 -0.2,0 -0.65,-0.3 -1.55,-1 -3.39,-1.84 -5.24,-1.84 -2.89,0 -5.37,2.09 -5.37,6.48 0,1.73 0.4,3.63 0.54,4.23 z"
           inkscape:connector-curvature="0"
           style="fill:#000000;stroke-width:0" /><path
           id="path8923"
           d="m 483.49,406.7 0.1,0 0.1,0 0.12,0 0.12,0 0.14,0.01 0.14,0 0.15,0.01 0.15,0 0.16,0.01 0.17,0.01 0.18,0.01 0.17,0.01 0.19,0.01 0.19,0.02 0.38,0.03 0.4,0.04 0.4,0.05 0.41,0.06 0.4,0.07 0.41,0.08 0.19,0.05 0.2,0.04 0.19,0.05 0.19,0.06 0.18,0.05 0.18,0.06 c 2.58,0.91 3.06,2.58 3.06,3.63 0,1.92 -1.92,3.06 -4.32,3.06 l 0,-0.97 c 1.53,0 2.82,-0.76 2.82,-2.09 0,-3.38 -5.89,-3.38 -7.39,-3.38 l -1.7,0 c 1.42,5.05 5.3,5.47 6.27,5.47 l 0,0.97 c -4.18,0 -9.83,-3.2 -9.83,-9.16 0,-3.51 2.2,-6.54 6.28,-6.54 5.89,0 8.64,3.44 8.64,3.94 0,0.2 -0.31,0.59 -0.59,0.59 -0.21,0 -0.29,-0.08 -0.57,-0.36 -2.72,-3.2 -6.79,-3.2 -7.42,-3.2 -2.09,0 -3.48,1.39 -3.48,4.22 0,0.48 0,1.18 0.42,3.09 z"
           inkscape:connector-curvature="0"
           style="fill:#000000;stroke-width:0" /><path
           id="path8925"
           d="m 503.19,402.45 -0.03,-0.11 -0.04,-0.12 -0.05,-0.12 -0.05,-0.12 -0.05,-0.12 -0.06,-0.13 -0.06,-0.13 -0.07,-0.12 -0.07,-0.13 -0.07,-0.13 -0.08,-0.13 -0.09,-0.12 -0.09,-0.13 -0.09,-0.12 -0.1,-0.12 -0.1,-0.12 -0.1,-0.12 -0.11,-0.11 -0.12,-0.1 -0.12,-0.1 -0.12,-0.1 -0.12,-0.09 -0.13,-0.08 -0.14,-0.08 -0.14,-0.07 -0.14,-0.06 -0.14,-0.05 -0.15,-0.05 -0.15,-0.04 -0.16,-0.02 -0.16,-0.02 -0.16,0 c -0.11,0 -1.16,0 -1.89,0.48 1.43,0.45 1.53,1.72 1.53,1.92 0,0.77 -0.6,1.3 -1.39,1.3 -0.97,0 -1.99,-0.84 -1.99,-2.14 0,-1.74 1.95,-2.53 3.66,-2.53 1.61,0 3.03,1 3.9,2.47 0.83,-1.85 2.75,-2.47 4.14,-2.47 4.02,0 6.14,4.34 6.14,5.33 0,0.45 -0.45,0.45 -0.56,0.45 -0.48,0 -0.51,-0.17 -0.65,-0.59 -0.74,-2.41 -2.83,-4.22 -4.78,-4.22 -1.4,0 -2.13,0.93 -2.13,2.26 0,0.91 0.84,4.08 1.81,7.96 0.71,2.67 2.27,3.54 3.42,3.54 0.07,0 1.14,0 1.88,-0.48 -1.11,-0.31 -1.53,-1.3 -1.53,-1.92 0,-0.77 0.59,-1.29 1.39,-1.29 0.81,0 1.95,0.66 1.95,2.13 0,1.95 -2.23,2.53 -3.62,2.53 -1.74,0 -3.14,-1.14 -3.91,-2.47 -0.62,1.44 -2.22,2.47 -4.17,2.47 -3.91,0 -6.14,-4.28 -6.14,-5.33 0,-0.45 0.5,-0.45 0.59,-0.45 0.46,0 0.49,0.14 0.67,0.59 0.86,2.72 3.07,4.22 4.77,4.22 1.16,0 2.09,-0.62 2.09,-2.29 0,-0.71 -0.42,-2.44 -0.73,-3.63 z"
           inkscape:connector-curvature="0"
           style="fill:#000000;stroke-width:0" /><path
           id="path8927"
           d="m 525.66,412.53 3.54,0 c 0.66,0 1.11,0 1.11,0.76 0,0.49 -0.45,0.49 -1.03,0.49 l -3.31,0 1.28,5.15 c 0.03,0.18 0.11,0.35 0.11,0.49 0,0.64 -0.48,1.12 -1.19,1.12 -0.87,0 -1.39,-0.59 -1.64,-1.5 -0.23,-0.87 0.22,0.8 -1.33,-5.26 l -3.54,0 c -0.66,0 -1.11,0 -1.11,-0.77 0,-0.48 0.4,-0.48 1.04,-0.48 l 3.3,0 -2.05,-8.22 c -0.22,-0.88 -0.53,-2.13 -0.53,-2.58 0,-2.06 1.75,-3.31 3.74,-3.31 3.87,0 6.06,4.87 6.06,5.33 0,0.45 -0.45,0.45 -0.56,0.45 -0.41,0 -0.46,-0.08 -0.72,-0.66 -0.99,-2.2 -2.77,-4.15 -4.67,-4.15 -0.74,0 -1.22,0.45 -1.22,1.7 0,0.36 0.14,1.09 0.2,1.44 z"
           inkscape:connector-curvature="0"
           style="fill:#000000;stroke-width:0" /><path
           id="path8929"
           d="m 540.27,405.79 0,0.02 0,0.01 0.01,0.02 0,0.03 0.01,0.03 0,0.03 0.01,0.03 0.01,0.04 0.01,0.04 0.01,0.05 0.01,0.04 0.02,0.06 0.01,0.05 0.01,0.05 0.03,0.12 0.03,0.13 0.04,0.13 0.03,0.15 0.04,0.14 0.04,0.15 0.04,0.15 0.08,0.32 0.08,0.31 0.04,0.15 0.04,0.15 0.03,0.14 0.04,0.14 0.04,0.14 0.03,0.12 0.03,0.12 0.01,0.05 0.02,0.05 0.01,0.05 0.01,0.05 0.02,0.04 0.01,0.04 0.01,0.04 0.01,0.03 0,0.03 0.01,0.03 0.01,0.02 0,0.02 0.01,0.01 0,0.01 c 0.08,0.29 1.08,2.02 2.21,2.86 0.37,0.27 1.31,0.97 2.81,0.97 0.34,0 1.22,-0.03 1.92,-0.48 -1.13,-0.31 -1.53,-1.3 -1.53,-1.92 0,-0.77 0.59,-1.29 1.39,-1.29 0.8,0 1.95,0.66 1.95,2.13 0,1.81 -1.92,2.53 -3.7,2.53 -1.81,0 -3.38,-0.72 -4.91,-2.47 -0.62,2.13 -2.75,2.47 -3.59,2.47 -1.28,0 -2.16,-0.8 -2.72,-1.76 -0.8,-1.36 -1.28,-3.4 -1.28,-3.57 0,-0.45 0.48,-0.45 0.59,-0.45 0.49,0 0.52,0.11 0.77,1.05 0.51,2.12 1.19,3.76 2.54,3.76 0.91,0 1.15,-0.76 1.15,-1.7 0,-0.67 -0.32,-1.95 -0.57,-2.89 -0.23,-0.95 -0.58,-2.38 -0.76,-3.14 l -1.11,-4.47 c -0.14,-0.44 -0.35,-1.31 -0.35,-1.42 0,-0.77 0.63,-1.11 1.19,-1.11 0.52,0 1.22,0.31 1.49,1 0.07,0.22 0.45,1.75 0.67,2.62 z"
           inkscape:connector-curvature="0"
           style="fill:#000000;stroke-width:0" /><path
           id="path8931"
           d="m 584.82,420.04 -9.96,9.92 c -0.61,0.6 -0.7,0.71 -1.11,0.71 -0.48,0 -0.98,-0.46 -0.98,-1 0,-0.36 0.09,-0.46 0.64,-1 l 9.97,-10.02 -9.97,-10.01 c -0.55,-0.55 -0.64,-0.64 -0.64,-1 0,-0.55 0.5,-0.99 0.98,-0.99 0.41,0 0.5,0.1 1.11,0.69 l 9.91,9.92 10.31,-10.31 c 0.11,-0.05 0.45,-0.3 0.75,-0.3 0.6,0 1,0.44 1,0.99 0,0.11 0,0.31 -0.15,0.56 -0.05,0.09 -7.97,7.92 -10.46,10.45 l 9.11,9.13 c 0.25,0.29 1,0.93 1.25,1.23 0.05,0.11 0.25,0.3 0.25,0.66 0,0.54 -0.4,1 -1,1 -0.39,0 -0.59,-0.21 -1.14,-0.75 z"
           inkscape:connector-curvature="0"
           style="fill:#000000;stroke-width:0" /><path
           id="path8933"
           d="m 630.08,417.46 0.15,0.01 0.15,0 0.16,0 0.07,0 0.07,0.01 0.08,0 0.07,0.01 0.07,0.01 0.07,0.01 0.07,0.01 0.07,0.02 0.06,0.01 0.06,0.02 0.06,0.02 0.06,0.03 0.05,0.02 0.06,0.03 0.05,0.03 0.04,0.04 0.04,0.04 0.04,0.04 0.04,0.05 0.01,0.02 0.02,0.03 0.01,0.02 0.01,0.03 0.01,0.03 0.01,0.03 0.01,0.03 0.01,0.03 0.01,0.04 0,0.03 0.01,0.04 0,0.03 0,0.04 0,0.04 c 0,0.69 -0.6,0.69 -1.45,0.69 l -8.06,0 c 1.19,4.23 3.98,7.12 8.51,7.12 l 1.55,0 c 0.85,0 1.64,0 1.64,0.86 0,0.69 -0.65,0.69 -1.5,0.69 l -1.73,0 c -6.49,0 -13.16,-4.99 -13.16,-12.6 0,-5.48 3.74,-9.42 9.02,-9.42 3.23,0 6.48,1.99 6.48,2.55 0,0.14 -0.06,0.69 -0.5,0.69 -0.11,0 -0.2,0 -0.65,-0.3 -1.55,-1 -3.4,-1.84 -5.24,-1.84 -2.89,0 -5.37,2.09 -5.37,6.48 0,1.73 0.4,3.63 0.54,4.23 z"
           inkscape:connector-curvature="0"
           style="fill:#000000;stroke-width:0" /><path
           id="path8935"
           d="m 649.76,419.7 0.03,0.12 0.02,0.11 0.03,0.1 0.03,0.1 0.03,0.1 0.03,0.09 0.04,0.08 0.04,0.08 0.04,0.08 0.04,0.07 0.05,0.07 0.06,0.06 0.06,0.06 0.07,0.06 0.07,0.05 0.09,0.05 0.09,0.04 0.1,0.04 0.11,0.04 0.12,0.03 0.07,0.02 0.06,0.01 0.07,0.02 0.08,0.01 0.07,0.01 0.08,0.01 0.08,0.02 0.09,0.01 0.09,0 0.09,0.01 0.1,0.01 0.1,0.01 0.1,0.01 0.11,0 0.11,0.01 0.11,0 0.12,0.01 0.12,0 0.13,0 0.13,0 0.13,0.01 0.14,0 0.15,0 0.14,0 c 1.08,0 1.42,0 1.42,0.76 0,0.04 -0.03,0.49 -0.59,0.49 -0.8,0 -1.73,-0.06 -2.58,-0.11 -0.87,-0.03 -1.9,-0.03 -2.78,-0.03 -0.73,0 -1.67,0.03 -2.4,0.03 -0.74,0 -1.57,0.11 -2.27,0.11 -0.2,0 -0.73,0 -0.73,-0.77 0,-0.48 0.42,-0.48 1.12,-0.48 0.03,0 0.69,0 1.31,-0.08 0.74,-0.06 0.82,-0.14 0.82,-0.48 0,-0.07 0,-0.24 -0.15,-0.77 l -4.64,-18.5 c -0.31,-1.19 -0.39,-1.47 -3.06,-1.47 -0.59,0 -1.05,0 -1.05,-0.73 0,-0.52 0.43,-0.52 1.05,-0.52 l 17.52,0 c 0.87,0 0.9,0.03 1.18,0.7 0.36,0.94 2.97,7.69 2.97,7.97 0,0.11 -0.07,0.5 -0.59,0.5 -0.42,0 -0.48,-0.18 -0.7,-0.73 -1.32,-3.31 -2.86,-7.19 -9.24,-7.19 l -3.94,0 c -1.07,0 -1.1,0.05 -1.1,0.36 0,0.03 0,0.2 0.14,0.72 z"
           inkscape:connector-curvature="0"
           style="fill:#000000;stroke-width:0" /><path
           id="path8937"
           d="m 690.35,406.81 0.01,0.02 0.01,0.02 0.01,0.02 0.01,0.02 0.01,0.02 0.01,0.02 0.01,0.02 0,0.01 0.01,0.02 0.01,0.02 0.01,0.03 0.02,0.03 0.01,0.03 0.01,0.03 0.01,0.03 0.01,0.02 0.01,0.03 0,0.02 0.01,0.02 0.01,0.02 0,0.02 0.01,0.02 0,0.01 0.01,0.02 0,0.01 0,0.01 0,0.02 0.01,0.01 0,0.01 0,0.01 0,0 0,0.01 0,0.01 0,0 0,0.01 0,0 0,0 c 0,0.22 -0.14,0.5 -0.59,0.5 -0.08,0 -0.25,0 -0.39,-0.14 -0.07,-0.08 -0.11,-0.11 -0.52,-1.01 -2.27,-5.02 -4.05,-6.77 -9.73,-6.77 l -5.93,0 c -1.07,0 -1.11,0.05 -1.11,0.36 0,0.03 0,0.2 0.15,0.72 l 2.32,9.34 3.91,0 c 2.75,0 3.17,-0.45 3.17,-1.61 0,-0.37 -0.11,-0.96 -0.25,-1.56 -0.09,-0.31 -0.09,-0.34 -0.09,-0.42 0,-0.06 0.03,-0.48 0.59,-0.48 0.49,0 0.52,0.17 0.66,0.76 l 1.92,7.64 c 0.09,0.41 0.09,0.49 0.09,0.52 0,0.34 -0.26,0.48 -0.59,0.48 -0.45,0 -0.48,-0.17 -0.69,-0.9 -0.73,-2.72 -1.78,-3.18 -4.73,-3.18 l -3.67,0 2.09,8.3 c 0.28,1.08 0.31,1.19 1.78,1.19 l 5.67,0 c 4.58,0 5.72,-0.94 5.72,-4.05 0,-0.91 -0.14,-1.95 -0.14,-2.12 0,-0.29 0.11,-0.6 0.59,-0.6 0.54,0 0.57,0.31 0.63,0.91 l 0.62,6.06 c 0.11,1.05 -0.12,1.05 -1,1.05 l -19.17,0 c -0.68,0 -1.11,0 -1.11,-0.77 0,-0.48 0.38,-0.48 1.16,-0.48 0.55,0 0.69,0 1.31,-0.08 0.71,-0.06 0.77,-0.13 0.77,-0.48 0,-0.24 -0.1,-0.6 -0.14,-0.77 l -4.57,-18.22 c -0.34,-1.36 -0.37,-1.61 -3.09,-1.61 -0.62,0 -1.05,0 -1.05,-0.76 0,-0.49 0.43,-0.49 1.05,-0.49 l 19.69,0 c 0.86,0 0.9,0 1.19,0.63 z"
           inkscape:connector-curvature="0"
           style="fill:#000000;stroke-width:0" /><path
           id="path8939"
           d="m 729.53,419.73 0.03,0.12 0.03,0.11 0.03,0.11 0.03,0.1 0.02,0.1 0.03,0.09 0.03,0.08 0.04,0.08 0.03,0.08 0.04,0.07 0.04,0.07 0.05,0.06 0.05,0.06 0.05,0.05 0.06,0.05 0.07,0.05 0.08,0.04 0.08,0.04 0.09,0.03 0.09,0.03 0.11,0.03 0.06,0.01 0.05,0.01 0.06,0.02 0.07,0.01 0.06,0.01 0.07,0 0.07,0.01 0.08,0.01 0.08,0.01 0.07,0 0.09,0.01 0.08,0.01 0.09,0 0.09,0 0.1,0.01 0.1,0 0.1,0 0.1,0.01 0.11,0 0.11,0 0.12,0 0.12,0 c 0.73,0 1.19,0 1.19,0.73 0,0.52 -0.43,0.52 -1.05,0.52 l -4.73,0 c -1.02,0 -1.05,-0.03 -1.5,-0.69 L 712.94,402 709.5,421.62 c -0.18,0.91 -0.18,0.94 -1.22,0.94 l -4.98,0 c -0.7,0 -1.15,0 -1.15,-0.77 0,-0.48 0.42,-0.48 1.18,-0.48 0.57,0 0.69,0 1.33,-0.08 0.69,-0.06 0.77,-0.14 0.77,-0.48 0,-0.04 0,-0.24 -0.15,-0.77 L 700.9,402.5 c -0.32,-1.19 -0.85,-2.38 -3.63,-2.49 -0.28,0 -0.74,-0.03 -0.74,-0.76 0,-0.04 0.04,-0.49 0.52,-0.49 1.05,0 2.52,0.14 3.63,0.14 0.84,0 2.85,-0.14 3.7,-0.14 0.17,0 0.69,0 0.69,0.77 0,0.45 -0.46,0.48 -0.77,0.48 -2.22,0.08 -2.22,0.99 -2.22,1.47 0,0.14 0,0.31 0.14,0.88 l 4.63,18.53 0.03,0 3.73,-21.19 c 0.11,-0.63 0.17,-0.94 0.71,-0.94 0.48,0 0.76,0.39 1,0.77 l 14.64,21.7 0.03,-0.03 -4.91,-19.72 c -0.28,-1.19 -0.36,-1.47 -3.08,-1.47 -0.62,0 -1.04,0 -1.04,-0.76 0,-0.04 0,-0.49 0.56,-0.49 0.67,0 1.47,0.11 2.16,0.11 0.7,0 1.5,0.03 2.2,0.03 0.97,0 3.45,-0.14 4.42,-0.14 0.22,0 0.73,0 0.73,0.77 0,0.48 -0.42,0.48 -1.1,0.48 -0.05,0 -0.71,0 -1.33,0.08 -0.8,0.06 -0.8,0.17 -0.8,0.52 0,0.21 0.1,0.56 0.14,0.76 z"
           inkscape:connector-curvature="0"
           style="fill:#000000;stroke-width:0" /></g>    </g>
    <text
       xml:space="preserve"
       style="color:#000000;font-style:normal;font-variant:normal;font-weight:bold;font-stretch:normal;font-size:24px;line-height:125%;font-family:'Liberation Sans';-inkscape-font-specification:'Liberation Sans';text-indent:0;text-align:start;text-decoration:none;text-decoration-line:none;text-decoration-style:solid;text-decoration-color:#000000;letter-spacing:0px;word-spacing:0px;text-transform:none;direction:ltr;block-progression:tb;writing-mode:lr-tb;baseline-shift:baseline;text-anchor:start;white-space:normal;clip-rule:nonzero;display:inline;overflow:visible;visibility:visible;opacity:1;isolation:auto;mix-blend-mode:normal;color-interpolation:sRGB;color-interpolation-filters:linearRGB;solid-color:#000000;solid-opacity:1;fill:#710000;fill-opacity:1;fill-rule:nonzero;stroke:none;stroke-width:1.25px;stroke-linecap:butt;stroke-linejoin:miter;stroke-miterlimit:4;stroke-dasharray:none;stroke-dashoffset:0;stroke-opacity:1;color-rendering:auto;image-rendering:auto;shape-rendering:auto;text-rendering:auto;enable-background:accumulate"
       x="76.307129"
       y="99.241531"
       id="text9137-2"
       sodipodi:linespacing="125%"><tspan
         sodipodi:role="line"
         id="tspan9139-5"
         x="76.307129"
         y="99.241531">Autour de 1.1 kV :</tspan><tspan
         sodipodi:role="line"
         x="76.307129"
         y="129.24153"
         id="tspan9141-8">~60% variation</tspan></text>
  </g>
</svg>
